<svg xmlns="http://www.w3.org/2000/svg" xmlns:xlink="http://www.w3.org/1999/xlink" width="1080" zoomAndPan="magnify" viewBox="0 0 810 809.999993" height="1080" preserveAspectRatio="xMidYMid meet" version="1.0"><defs><g/><clipPath id="b19707b189"><path d="M 193.15625 45.199219 L 616.90625 45.199219 L 616.90625 648.199219 L 193.15625 648.199219 Z M 193.15625 45.199219 " clip-rule="nonzero"/></clipPath></defs><g clip-path="url(#b19707b189)"><path fill="#b6b6bf" d="M 613.046875 109.167969 C 615.160156 111.339844 616.464844 114.3125 616.464844 117.582031 L 616.464844 636.152344 C 616.464844 642.808594 611.066406 648.210938 604.40625 648.210938 L 505.183594 648.210938 L 505.183594 520.339844 C 515.691406 512.222656 524.761719 502.332031 531.9375 491.117188 C 543.425781 473.164062 550.089844 451.835938 550.089844 428.964844 C 550.089844 426.136719 547.789062 423.839844 544.957031 423.839844 L 505.183594 423.839844 L 505.183594 399.886719 C 509.1875 397.152344 521.601562 380.488281 510.234375 363.464844 C 498.503906 345.914062 515.742188 328.917969 511.851562 326.164062 C 510.632812 325.757812 507.992188 328.175781 505.183594 331.875 L 505.183594 258.769531 L 530.925781 258.769531 C 537.863281 258.769531 543.488281 253.140625 543.488281 246.207031 C 543.488281 239.269531 537.863281 233.640625 530.925781 233.640625 L 505.183594 233.640625 L 505.183594 105.527344 L 585.117188 105.527344 L 571.890625 69.347656 L 505.183594 69.375 L 505.183594 45.226562 L 580.285156 45.226562 C 585.820312 45.226562 590.484375 48.953125 591.902344 54.039062 C 594.546875 60.109375 595.371094 64.621094 587.5625 66.34375 L 601.070312 104.792969 L 610.617188 105.046875 Z M 505.183594 386.226562 C 505.425781 383.605469 505.546875 381.125 505.359375 379.316406 C 505.316406 378.921875 505.257812 378.527344 505.183594 378.140625 Z M 505.183594 648.210938 L 478.402344 648.210938 L 478.402344 544.421875 L 480.816406 544.421875 C 483.65625 544.421875 485.949219 542.121094 485.949219 539.289062 L 485.949219 532.394531 C 492.773438 529.007812 499.214844 524.957031 505.183594 520.339844 Z M 478.402344 45.226562 L 505.183594 45.226562 L 505.183594 69.375 L 478.402344 69.378906 Z M 505.183594 105.527344 L 505.183594 233.640625 L 478.402344 233.640625 L 478.402344 208.515625 L 480.675781 208.515625 C 487.617188 208.515625 493.238281 202.890625 493.238281 195.953125 C 493.238281 189.015625 487.617188 183.390625 480.675781 183.390625 L 478.402344 183.390625 L 478.402344 105.527344 Z M 505.183594 258.769531 L 505.183594 331.875 C 500.433594 338.128906 495.1875 348.039062 495.46875 354.144531 C 495.738281 359.988281 497.972656 364.910156 502.339844 371.441406 C 503.65625 373.414062 504.722656 375.667969 505.183594 378.140625 L 505.183594 386.226562 C 504.605469 392.578125 503.335938 399.757812 504.140625 400.230469 C 504.3125 400.351562 504.683594 400.230469 505.183594 399.886719 L 505.183594 423.839844 L 478.402344 423.839844 L 478.402344 405.527344 C 478.414062 405.535156 478.421875 405.546875 478.433594 405.554688 C 480.921875 407.03125 491.113281 386.410156 490.261719 378.265625 C 489.507812 371.054688 486.832031 364.882812 483.429688 359.796875 C 480.921875 356.046875 479.34375 352.40625 478.402344 348.929688 L 478.402344 330.582031 C 479.886719 323.976562 482.050781 319.402344 480.007812 317.953125 C 479.535156 317.773438 478.992188 317.894531 478.402344 318.257812 L 478.402344 258.769531 Z M 478.402344 399.507812 C 479.144531 393.773438 480.683594 385.273438 480.121094 379.835938 C 479.871094 377.457031 479.257812 375.214844 478.402344 373.125 Z M 478.402344 648.210938 L 456.816406 648.210938 L 456.816406 544.421875 L 478.402344 544.421875 Z M 456.816406 45.226562 L 478.402344 45.226562 L 478.402344 69.378906 L 456.816406 69.390625 Z M 478.402344 105.527344 L 478.402344 183.390625 L 456.816406 183.390625 L 456.816406 105.527344 Z M 478.402344 208.515625 L 478.402344 233.640625 L 456.816406 233.640625 L 456.816406 208.515625 Z M 478.402344 258.769531 L 478.402344 318.257812 C 473.765625 321.144531 466.230469 339.363281 466.503906 345.320312 C 466.84375 352.769531 469.789062 359.179688 475.535156 367.773438 C 476.640625 369.421875 477.625 371.210938 478.402344 373.125 L 478.402344 399.507812 C 477.992188 402.699219 477.828125 405.03125 478.402344 405.527344 L 478.402344 423.839844 L 456.816406 423.839844 L 456.816406 397.171875 C 461.347656 393.597656 466.59375 382.195312 465.46875 374.417969 C 464.855469 370.167969 463.042969 366.941406 459.730469 362.882812 C 458.945312 361.925781 458.300781 360.808594 458.050781 359.574219 C 457.449219 356.617188 458.058594 347.566406 456.816406 344.175781 L 456.816406 258.769531 Z M 478.402344 330.582031 C 477.257812 335.671875 476.523438 341.953125 478.402344 348.929688 Z M 456.816406 648.210938 L 430.429688 648.210938 L 430.429688 544.421875 L 456.816406 544.421875 Z M 430.429688 45.226562 L 456.816406 45.226562 L 456.816406 69.390625 L 430.429688 69.40625 Z M 456.816406 105.527344 L 456.816406 183.390625 L 430.429688 183.390625 L 430.429688 105.527344 Z M 456.816406 208.515625 L 456.816406 233.640625 L 430.429688 233.640625 L 430.429688 208.515625 Z M 456.816406 258.769531 L 456.816406 344.175781 C 456.601562 343.585938 456.332031 343.164062 455.992188 342.980469 C 453.886719 342.582031 446.972656 356.933594 448.148438 362.722656 C 448.953125 366.679688 450.683594 369.855469 452.714844 372.347656 C 454.382812 374.390625 455.253906 375.6875 455.394531 376.660156 C 455.578125 377.925781 451.066406 397.636719 453.277344 398.054688 C 454.289062 398.570312 455.527344 398.191406 456.816406 397.171875 L 456.816406 423.839844 L 435.878906 423.839844 C 436.519531 421.214844 436.773438 418.429688 436.652344 415.574219 C 436.382812 409.28125 434.300781 402.601562 430.429688 396.460938 L 430.429688 258.769531 Z M 430.429688 648.210938 L 405.132812 648.210938 L 405.132812 544.421875 L 430.429688 544.421875 Z M 405.132812 45.226562 L 430.429688 45.226562 L 430.429688 69.40625 L 405.132812 69.410156 Z M 430.429688 105.527344 L 430.429688 183.390625 L 405.132812 183.390625 L 405.132812 105.527344 Z M 430.429688 208.515625 L 430.429688 233.640625 L 405.132812 233.640625 L 405.132812 208.515625 Z M 430.429688 258.769531 L 430.429688 396.460938 C 429.375 394.792969 428.199219 393.171875 426.882812 391.597656 C 420.761719 384.277344 412.910156 379.527344 405.132812 377.757812 L 405.132812 258.769531 Z M 405.132812 387.113281 C 407.910156 387.738281 410.703125 388.921875 413.355469 390.597656 C 415.9375 392.230469 418.378906 394.351562 420.519531 396.921875 C 420.769531 397.214844 421.214844 397.261719 421.515625 397.003906 C 421.816406 396.753906 421.855469 396.316406 421.605469 396.015625 C 419.367188 393.335938 416.8125 391.125 414.109375 389.40625 C 411.292969 387.625 408.3125 386.378906 405.34375 385.714844 L 405.132812 385.667969 Z M 405.132812 648.210938 L 254.375 648.210938 C 253.675781 648.210938 253.007812 648.152344 252.339844 648.035156 C 250.648438 648.304688 248.867188 648.203125 247.113281 647.691406 L 246.589844 647.53125 L 246.589844 608.082031 L 252.617188 608.082031 L 252.617188 129.46875 C 252.164062 129.539062 251.703125 129.582031 251.234375 129.597656 C 249.671875 129.648438 248.117188 129.648438 246.589844 129.601562 L 246.589844 105.558594 C 247.339844 105.582031 248.097656 105.601562 248.867188 105.597656 C 249.140625 105.550781 249.410156 105.527344 249.65625 105.527344 L 405.132812 105.527344 L 405.132812 183.390625 L 380.175781 183.390625 C 373.242188 183.390625 367.613281 189.015625 367.613281 195.953125 C 367.613281 202.890625 373.242188 208.515625 380.175781 208.515625 L 405.132812 208.515625 L 405.132812 233.640625 L 329.925781 233.640625 C 322.984375 233.640625 317.363281 239.269531 317.363281 246.207031 C 317.363281 253.140625 322.984375 258.769531 329.925781 258.769531 L 405.132812 258.769531 L 405.132812 377.757812 L 405.023438 377.734375 C 397.855469 376.128906 390.753906 377.042969 385.0625 380.78125 L 370.246094 363.050781 C 360.511719 351.414062 369.132812 351.460938 357.324219 337.242188 L 327.441406 301.179688 C 325.773438 299.183594 323.445312 298.054688 321.039062 297.84375 C 318.632812 297.625 316.144531 298.328125 314.148438 299.988281 C 312.15625 301.65625 311.023438 303.984375 310.808594 306.390625 C 310.597656 308.800781 311.203125 311.28125 312.871094 313.273438 L 343.160156 349.503906 C 355.789062 364.621094 355.683594 354.441406 366.492188 367.371094 L 380.734375 384.507812 C 376.332031 389.40625 374.300781 396.039062 374.609375 403.164062 C 374.890625 409.996094 377.332031 417.28125 381.859375 423.839844 L 324.316406 423.839844 C 321.484375 423.839844 319.183594 426.136719 319.183594 428.964844 C 319.183594 451.835938 325.847656 473.164062 337.34375 491.117188 C 348.601562 508.710938 364.507812 523.042969 383.324219 532.394531 L 383.324219 539.289062 C 383.324219 542.121094 385.625 544.421875 388.453125 544.421875 L 405.132812 544.421875 Z M 246.589844 49.257812 C 258.105469 47.058594 271.804688 45.660156 287.917969 45.339844 C 298.707031 45.125 309.574219 45.226562 320.425781 45.226562 L 405.132812 45.226562 L 405.132812 69.410156 L 284.035156 69.460938 C 268.667969 69.46875 256.324219 70.835938 246.589844 73.015625 Z M 405.132812 385.667969 C 402.121094 385.019531 399.132812 384.964844 396.332031 385.546875 C 393.558594 386.128906 390.972656 387.324219 388.753906 389.175781 C 388.453125 389.433594 388.417969 389.875 388.664062 390.175781 C 388.914062 390.472656 389.363281 390.511719 389.65625 390.265625 C 391.695312 388.558594 394.066406 387.457031 396.621094 386.933594 C 399.292969 386.378906 402.15625 386.441406 405.035156 387.089844 L 405.132812 387.113281 Z M 246.589844 647.53125 C 230.820312 642.796875 218.355469 635.597656 209.414062 625.679688 C 200.222656 615.480469 194.976562 602.777344 193.902344 587.335938 C 193.832031 586.816406 193.800781 586.285156 193.800781 585.75 L 193.800781 93.566406 C 193.625 92.234375 193.554688 90.894531 193.582031 89.53125 C 193.703125 82.230469 196.558594 75.039062 202.746094 68.632812 C 210.527344 60.5625 224.578125 53.449219 246.589844 49.257812 L 246.589844 73.015625 C 233.070312 76.039062 224.597656 80.625 220.082031 85.308594 C 216.921875 88.582031 216.828125 91.054688 219.644531 94.613281 C 224.375 100.574219 234.308594 105.097656 246.589844 105.558594 L 246.589844 129.601562 C 244.546875 129.546875 242.535156 129.40625 240.558594 129.1875 L 240.558594 608.082031 L 246.589844 608.082031 L 246.589844 647.53125 " fill-opacity="1" fill-rule="evenodd"/></g><g fill="#b6b6bf" fill-opacity="1"><g transform="translate(9.908419, 712.250072)"><g><path d="M 44.84375 0 L 33.734375 0 L 15.140625 -28.140625 L 15.140625 0 L 4.03125 0 L 4.03125 -45.625 L 15.140625 -45.625 L 33.734375 -17.359375 L 33.734375 -45.625 L 44.84375 -45.625 Z M 44.84375 0 "/></g></g></g><g fill="#b6b6bf" fill-opacity="1"><g transform="translate(56.052543, 712.250072)"><g><path d="M 20.546875 0.515625 C 16.984375 0.515625 13.78125 -0.238281 10.9375 -1.75 C 8.101562 -3.269531 5.875 -5.4375 4.25 -8.25 C 2.625 -11.070312 1.8125 -14.367188 1.8125 -18.140625 C 1.8125 -21.859375 2.632812 -25.132812 4.28125 -27.96875 C 5.9375 -30.8125 8.191406 -32.992188 11.046875 -34.515625 C 13.910156 -36.035156 17.117188 -36.796875 20.671875 -36.796875 C 24.222656 -36.796875 27.425781 -36.035156 30.28125 -34.515625 C 33.144531 -32.992188 35.398438 -30.8125 37.046875 -27.96875 C 38.691406 -25.132812 39.515625 -21.859375 39.515625 -18.140625 C 39.515625 -14.410156 38.679688 -11.125 37.015625 -8.28125 C 35.347656 -5.445312 33.070312 -3.269531 30.1875 -1.75 C 27.3125 -0.238281 24.097656 0.515625 20.546875 0.515625 Z M 20.546875 -9.09375 C 22.660156 -9.09375 24.460938 -9.875 25.953125 -11.4375 C 27.453125 -13 28.203125 -15.234375 28.203125 -18.140625 C 28.203125 -21.035156 27.476562 -23.265625 26.03125 -24.828125 C 24.582031 -26.390625 22.796875 -27.171875 20.671875 -27.171875 C 18.503906 -27.171875 16.703125 -26.398438 15.265625 -24.859375 C 13.835938 -23.328125 13.125 -21.085938 13.125 -18.140625 C 13.125 -15.234375 13.828125 -13 15.234375 -11.4375 C 16.648438 -9.875 18.421875 -9.09375 20.546875 -9.09375 Z M 20.546875 -9.09375 "/></g></g></g><g fill="#b6b6bf" fill-opacity="1"><g transform="translate(94.722565, 712.250072)"><g><path d="M 24.25 -9.421875 L 24.25 0 L 18.59375 0 C 14.5625 0 11.414062 -0.984375 9.15625 -2.953125 C 6.90625 -4.929688 5.78125 -8.148438 5.78125 -12.609375 L 5.78125 -27.046875 L 1.359375 -27.046875 L 1.359375 -36.265625 L 5.78125 -36.265625 L 5.78125 -45.109375 L 16.90625 -45.109375 L 16.90625 -36.265625 L 24.1875 -36.265625 L 24.1875 -27.046875 L 16.90625 -27.046875 L 16.90625 -12.484375 C 16.90625 -11.398438 17.160156 -10.617188 17.671875 -10.140625 C 18.191406 -9.660156 19.0625 -9.421875 20.28125 -9.421875 Z M 24.25 -9.421875 "/></g></g></g><g fill="#b6b6bf" fill-opacity="1"><g transform="translate(118.379373, 712.250072)"><g/></g></g><g fill="#b6b6bf" fill-opacity="1"><g transform="translate(129.427681, 712.250072)"><g><path d="M 9.625 -40.046875 C 7.664062 -40.046875 6.066406 -40.617188 4.828125 -41.765625 C 3.597656 -42.910156 2.984375 -44.328125 2.984375 -46.015625 C 2.984375 -47.753906 3.597656 -49.195312 4.828125 -50.34375 C 6.066406 -51.488281 7.664062 -52.0625 9.625 -52.0625 C 11.53125 -52.0625 13.097656 -51.488281 14.328125 -50.34375 C 15.566406 -49.195312 16.1875 -47.753906 16.1875 -46.015625 C 16.1875 -44.328125 15.566406 -42.910156 14.328125 -41.765625 C 13.097656 -40.617188 11.53125 -40.046875 9.625 -40.046875 Z M 15.140625 -36.265625 L 15.140625 0 L 4.03125 0 L 4.03125 -36.265625 Z M 15.140625 -36.265625 "/></g></g></g><g fill="#b6b6bf" fill-opacity="1"><g transform="translate(145.870345, 712.250072)"><g><path d="M 26.125 -36.65625 C 30.375 -36.65625 33.765625 -35.28125 36.296875 -32.53125 C 38.835938 -29.78125 40.109375 -26 40.109375 -21.1875 L 40.109375 0 L 29.0625 0 L 29.0625 -19.6875 C 29.0625 -22.113281 28.429688 -24 27.171875 -25.34375 C 25.910156 -26.6875 24.21875 -27.359375 22.09375 -27.359375 C 19.976562 -27.359375 18.289062 -26.6875 17.03125 -25.34375 C 15.769531 -24 15.140625 -22.113281 15.140625 -19.6875 L 15.140625 0 L 4.03125 0 L 4.03125 -36.265625 L 15.140625 -36.265625 L 15.140625 -31.453125 C 16.265625 -33.054688 17.78125 -34.320312 19.6875 -35.25 C 21.601562 -36.1875 23.75 -36.65625 26.125 -36.65625 Z M 26.125 -36.65625 "/></g></g></g><g fill="#b6b6bf" fill-opacity="1"><g transform="translate(186.945077, 712.250072)"><g/></g></g><g fill="#b6b6bf" fill-opacity="1"><g transform="translate(197.993386, 712.250072)"><g><path d="M 24.25 -9.421875 L 24.25 0 L 18.59375 0 C 14.5625 0 11.414062 -0.984375 9.15625 -2.953125 C 6.90625 -4.929688 5.78125 -8.148438 5.78125 -12.609375 L 5.78125 -27.046875 L 1.359375 -27.046875 L 1.359375 -36.265625 L 5.78125 -36.265625 L 5.78125 -45.109375 L 16.90625 -45.109375 L 16.90625 -36.265625 L 24.1875 -36.265625 L 24.1875 -27.046875 L 16.90625 -27.046875 L 16.90625 -12.484375 C 16.90625 -11.398438 17.160156 -10.617188 17.671875 -10.140625 C 18.191406 -9.660156 19.0625 -9.421875 20.28125 -9.421875 Z M 24.25 -9.421875 "/></g></g></g><g fill="#b6b6bf" fill-opacity="1"><g transform="translate(221.650199, 712.250072)"><g><path d="M 26.328125 -36.65625 C 30.484375 -36.65625 33.816406 -35.28125 36.328125 -32.53125 C 38.847656 -29.78125 40.109375 -26 40.109375 -21.1875 L 40.109375 0 L 29.0625 0 L 29.0625 -19.6875 C 29.0625 -22.113281 28.429688 -24 27.171875 -25.34375 C 25.910156 -26.6875 24.21875 -27.359375 22.09375 -27.359375 C 19.976562 -27.359375 18.289062 -26.6875 17.03125 -25.34375 C 15.769531 -24 15.140625 -22.113281 15.140625 -19.6875 L 15.140625 0 L 4.03125 0 L 4.03125 -48.09375 L 15.140625 -48.09375 L 15.140625 -31.390625 C 16.265625 -32.992188 17.800781 -34.269531 19.75 -35.21875 C 21.707031 -36.175781 23.898438 -36.65625 26.328125 -36.65625 Z M 26.328125 -36.65625 "/></g></g></g><g fill="#b6b6bf" fill-opacity="1"><g transform="translate(262.724942, 712.250072)"><g><path d="M 38.21875 -18.71875 C 38.21875 -17.675781 38.15625 -16.59375 38.03125 -15.46875 L 12.875 -15.46875 C 13.039062 -13.21875 13.765625 -11.492188 15.046875 -10.296875 C 16.328125 -9.109375 17.898438 -8.515625 19.765625 -8.515625 C 22.535156 -8.515625 24.460938 -9.6875 25.546875 -12.03125 L 37.375 -12.03125 C 36.769531 -9.644531 35.675781 -7.5 34.09375 -5.59375 C 32.507812 -3.6875 30.523438 -2.191406 28.140625 -1.109375 C 25.753906 -0.0234375 23.09375 0.515625 20.15625 0.515625 C 16.59375 0.515625 13.425781 -0.238281 10.65625 -1.75 C 7.882812 -3.269531 5.71875 -5.4375 4.15625 -8.25 C 2.59375 -11.070312 1.8125 -14.367188 1.8125 -18.140625 C 1.8125 -21.910156 2.582031 -25.203125 4.125 -28.015625 C 5.664062 -30.828125 7.820312 -32.992188 10.59375 -34.515625 C 13.363281 -36.035156 16.550781 -36.796875 20.15625 -36.796875 C 23.664062 -36.796875 26.785156 -36.054688 29.515625 -34.578125 C 32.242188 -33.109375 34.375 -31.007812 35.90625 -28.28125 C 37.445312 -25.550781 38.21875 -22.363281 38.21875 -18.71875 Z M 26.84375 -21.640625 C 26.84375 -23.546875 26.191406 -25.0625 24.890625 -26.1875 C 23.585938 -27.320312 21.960938 -27.890625 20.015625 -27.890625 C 18.148438 -27.890625 16.578125 -27.347656 15.296875 -26.265625 C 14.023438 -25.179688 13.238281 -23.640625 12.9375 -21.640625 Z M 26.84375 -21.640625 "/></g></g></g><g fill="#b6b6bf" fill-opacity="1"><g transform="translate(300.030116, 712.250072)"><g/></g></g><g fill="#b6b6bf" fill-opacity="1"><g transform="translate(311.078425, 712.250072)"><g><path d="M 27.296875 0 L 17.8125 -17.21875 L 15.140625 -17.21875 L 15.140625 0 L 4.03125 0 L 4.03125 -45.625 L 22.6875 -45.625 C 26.28125 -45.625 29.34375 -44.992188 31.875 -43.734375 C 34.414062 -42.484375 36.3125 -40.765625 37.5625 -38.578125 C 38.820312 -36.390625 39.453125 -33.953125 39.453125 -31.265625 C 39.453125 -28.234375 38.59375 -25.523438 36.875 -23.140625 C 35.164062 -20.753906 32.644531 -19.0625 29.3125 -18.0625 L 39.84375 0 Z M 15.140625 -25.09375 L 22.03125 -25.09375 C 24.070312 -25.09375 25.597656 -25.585938 26.609375 -26.578125 C 27.628906 -27.578125 28.140625 -28.988281 28.140625 -30.8125 C 28.140625 -32.539062 27.628906 -33.90625 26.609375 -34.90625 C 25.597656 -35.90625 24.070312 -36.40625 22.03125 -36.40625 L 15.140625 -36.40625 Z M 15.140625 -25.09375 "/></g></g></g><g fill="#b6b6bf" fill-opacity="1"><g transform="translate(350.72332, 712.250072)"><g><path d="M 38.21875 -18.71875 C 38.21875 -17.675781 38.15625 -16.59375 38.03125 -15.46875 L 12.875 -15.46875 C 13.039062 -13.21875 13.765625 -11.492188 15.046875 -10.296875 C 16.328125 -9.109375 17.898438 -8.515625 19.765625 -8.515625 C 22.535156 -8.515625 24.460938 -9.6875 25.546875 -12.03125 L 37.375 -12.03125 C 36.769531 -9.644531 35.675781 -7.5 34.09375 -5.59375 C 32.507812 -3.6875 30.523438 -2.191406 28.140625 -1.109375 C 25.753906 -0.0234375 23.09375 0.515625 20.15625 0.515625 C 16.59375 0.515625 13.425781 -0.238281 10.65625 -1.75 C 7.882812 -3.269531 5.71875 -5.4375 4.15625 -8.25 C 2.59375 -11.070312 1.8125 -14.367188 1.8125 -18.140625 C 1.8125 -21.910156 2.582031 -25.203125 4.125 -28.015625 C 5.664062 -30.828125 7.820312 -32.992188 10.59375 -34.515625 C 13.363281 -36.035156 16.550781 -36.796875 20.15625 -36.796875 C 23.664062 -36.796875 26.785156 -36.054688 29.515625 -34.578125 C 32.242188 -33.109375 34.375 -31.007812 35.90625 -28.28125 C 37.445312 -25.550781 38.21875 -22.363281 38.21875 -18.71875 Z M 26.84375 -21.640625 C 26.84375 -23.546875 26.191406 -25.0625 24.890625 -26.1875 C 23.585938 -27.320312 21.960938 -27.890625 20.015625 -27.890625 C 18.148438 -27.890625 16.578125 -27.347656 15.296875 -26.265625 C 14.023438 -25.179688 13.238281 -23.640625 12.9375 -21.640625 Z M 26.84375 -21.640625 "/></g></g></g><g fill="#b6b6bf" fill-opacity="1"><g transform="translate(388.028494, 712.250072)"><g><path d="M 1.8125 -18.140625 C 1.8125 -21.910156 2.582031 -25.203125 4.125 -28.015625 C 5.664062 -30.828125 7.8125 -32.992188 10.5625 -34.515625 C 13.3125 -36.035156 16.460938 -36.796875 20.015625 -36.796875 C 24.566406 -36.796875 28.367188 -35.601562 31.421875 -33.21875 C 34.484375 -30.832031 36.488281 -27.472656 37.4375 -23.140625 L 25.609375 -23.140625 C 24.609375 -25.910156 22.679688 -27.296875 19.828125 -27.296875 C 17.785156 -27.296875 16.15625 -26.503906 14.9375 -24.921875 C 13.726562 -23.347656 13.125 -21.085938 13.125 -18.140625 C 13.125 -15.191406 13.726562 -12.925781 14.9375 -11.34375 C 16.15625 -9.757812 17.785156 -8.96875 19.828125 -8.96875 C 22.679688 -8.96875 24.609375 -10.351562 25.609375 -13.125 L 37.4375 -13.125 C 36.488281 -8.882812 34.472656 -5.550781 31.390625 -3.125 C 28.316406 -0.695312 24.523438 0.515625 20.015625 0.515625 C 16.460938 0.515625 13.3125 -0.238281 10.5625 -1.75 C 7.8125 -3.269531 5.664062 -5.4375 4.125 -8.25 C 2.582031 -11.070312 1.8125 -14.367188 1.8125 -18.140625 Z M 1.8125 -18.140625 "/></g></g></g><g fill="#b6b6bf" fill-opacity="1"><g transform="translate(424.618755, 712.250072)"><g><path d="M 9.625 -40.046875 C 7.664062 -40.046875 6.066406 -40.617188 4.828125 -41.765625 C 3.597656 -42.910156 2.984375 -44.328125 2.984375 -46.015625 C 2.984375 -47.753906 3.597656 -49.195312 4.828125 -50.34375 C 6.066406 -51.488281 7.664062 -52.0625 9.625 -52.0625 C 11.53125 -52.0625 13.097656 -51.488281 14.328125 -50.34375 C 15.566406 -49.195312 16.1875 -47.753906 16.1875 -46.015625 C 16.1875 -44.328125 15.566406 -42.910156 14.328125 -41.765625 C 13.097656 -40.617188 11.53125 -40.046875 9.625 -40.046875 Z M 15.140625 -36.265625 L 15.140625 0 L 4.03125 0 L 4.03125 -36.265625 Z M 15.140625 -36.265625 "/></g></g></g><g fill="#b6b6bf" fill-opacity="1"><g transform="translate(441.061442, 712.250072)"><g><path d="M 15.140625 -31.140625 C 16.222656 -32.828125 17.71875 -34.191406 19.625 -35.234375 C 21.53125 -36.273438 23.765625 -36.796875 26.328125 -36.796875 C 29.316406 -36.796875 32.023438 -36.035156 34.453125 -34.515625 C 36.878906 -32.992188 38.796875 -30.828125 40.203125 -28.015625 C 41.609375 -25.203125 42.3125 -21.929688 42.3125 -18.203125 C 42.3125 -14.472656 41.609375 -11.1875 40.203125 -8.34375 C 38.796875 -5.507812 36.878906 -3.320312 34.453125 -1.78125 C 32.023438 -0.25 29.316406 0.515625 26.328125 0.515625 C 23.816406 0.515625 21.59375 0 19.65625 -1.03125 C 17.726562 -2.070312 16.222656 -3.414062 15.140625 -5.0625 L 15.140625 17.296875 L 4.03125 17.296875 L 4.03125 -36.265625 L 15.140625 -36.265625 Z M 31 -18.203125 C 31 -20.972656 30.226562 -23.148438 28.6875 -24.734375 C 27.15625 -26.316406 25.265625 -27.109375 23.015625 -27.109375 C 20.796875 -27.109375 18.914062 -26.304688 17.375 -24.703125 C 15.84375 -23.097656 15.078125 -20.910156 15.078125 -18.140625 C 15.078125 -15.359375 15.84375 -13.164062 17.375 -11.5625 C 18.914062 -9.96875 20.796875 -9.171875 23.015625 -9.171875 C 25.222656 -9.171875 27.101562 -9.984375 28.65625 -11.609375 C 30.21875 -13.234375 31 -15.429688 31 -18.203125 Z M 31 -18.203125 "/></g></g></g><g fill="#b6b6bf" fill-opacity="1"><g transform="translate(482.461129, 712.250072)"><g><path d="M 38.21875 -18.71875 C 38.21875 -17.675781 38.15625 -16.59375 38.03125 -15.46875 L 12.875 -15.46875 C 13.039062 -13.21875 13.765625 -11.492188 15.046875 -10.296875 C 16.328125 -9.109375 17.898438 -8.515625 19.765625 -8.515625 C 22.535156 -8.515625 24.460938 -9.6875 25.546875 -12.03125 L 37.375 -12.03125 C 36.769531 -9.644531 35.675781 -7.5 34.09375 -5.59375 C 32.507812 -3.6875 30.523438 -2.191406 28.140625 -1.109375 C 25.753906 -0.0234375 23.09375 0.515625 20.15625 0.515625 C 16.59375 0.515625 13.425781 -0.238281 10.65625 -1.75 C 7.882812 -3.269531 5.71875 -5.4375 4.15625 -8.25 C 2.59375 -11.070312 1.8125 -14.367188 1.8125 -18.140625 C 1.8125 -21.910156 2.582031 -25.203125 4.125 -28.015625 C 5.664062 -30.828125 7.820312 -32.992188 10.59375 -34.515625 C 13.363281 -36.035156 16.550781 -36.796875 20.15625 -36.796875 C 23.664062 -36.796875 26.785156 -36.054688 29.515625 -34.578125 C 32.242188 -33.109375 34.375 -31.007812 35.90625 -28.28125 C 37.445312 -25.550781 38.21875 -22.363281 38.21875 -18.71875 Z M 26.84375 -21.640625 C 26.84375 -23.546875 26.191406 -25.0625 24.890625 -26.1875 C 23.585938 -27.320312 21.960938 -27.890625 20.015625 -27.890625 C 18.148438 -27.890625 16.578125 -27.347656 15.296875 -26.265625 C 14.023438 -25.179688 13.238281 -23.640625 12.9375 -21.640625 Z M 26.84375 -21.640625 "/></g></g></g><g fill="#b6b6bf" fill-opacity="1"><g transform="translate(519.766303, 712.250072)"><g/></g></g><g fill="#b6b6bf" fill-opacity="1"><g transform="translate(530.814611, 712.250072)"><g><path d="M 15.140625 -31.140625 C 16.179688 -32.828125 17.675781 -34.191406 19.625 -35.234375 C 21.582031 -36.273438 23.816406 -36.796875 26.328125 -36.796875 C 29.316406 -36.796875 32.023438 -36.035156 34.453125 -34.515625 C 36.878906 -32.992188 38.796875 -30.828125 40.203125 -28.015625 C 41.609375 -25.203125 42.3125 -21.929688 42.3125 -18.203125 C 42.3125 -14.472656 41.609375 -11.1875 40.203125 -8.34375 C 38.796875 -5.507812 36.878906 -3.320312 34.453125 -1.78125 C 32.023438 -0.25 29.316406 0.515625 26.328125 0.515625 C 23.765625 0.515625 21.53125 0.0078125 19.625 -1 C 17.71875 -2.019531 16.222656 -3.375 15.140625 -5.0625 L 15.140625 0 L 4.03125 0 L 4.03125 -48.09375 L 15.140625 -48.09375 Z M 31 -18.203125 C 31 -20.972656 30.226562 -23.148438 28.6875 -24.734375 C 27.15625 -26.316406 25.265625 -27.109375 23.015625 -27.109375 C 20.796875 -27.109375 18.914062 -26.304688 17.375 -24.703125 C 15.84375 -23.097656 15.078125 -20.910156 15.078125 -18.140625 C 15.078125 -15.359375 15.84375 -13.164062 17.375 -11.5625 C 18.914062 -9.96875 20.796875 -9.171875 23.015625 -9.171875 C 25.222656 -9.171875 27.101562 -9.984375 28.65625 -11.609375 C 30.21875 -13.234375 31 -15.429688 31 -18.203125 Z M 31 -18.203125 "/></g></g></g><g fill="#b6b6bf" fill-opacity="1"><g transform="translate(572.214298, 712.250072)"><g><path d="M 20.546875 0.515625 C 16.984375 0.515625 13.78125 -0.238281 10.9375 -1.75 C 8.101562 -3.269531 5.875 -5.4375 4.25 -8.25 C 2.625 -11.070312 1.8125 -14.367188 1.8125 -18.140625 C 1.8125 -21.859375 2.632812 -25.132812 4.28125 -27.96875 C 5.9375 -30.8125 8.191406 -32.992188 11.046875 -34.515625 C 13.910156 -36.035156 17.117188 -36.796875 20.671875 -36.796875 C 24.222656 -36.796875 27.425781 -36.035156 30.28125 -34.515625 C 33.144531 -32.992188 35.398438 -30.8125 37.046875 -27.96875 C 38.691406 -25.132812 39.515625 -21.859375 39.515625 -18.140625 C 39.515625 -14.410156 38.679688 -11.125 37.015625 -8.28125 C 35.347656 -5.445312 33.070312 -3.269531 30.1875 -1.75 C 27.3125 -0.238281 24.097656 0.515625 20.546875 0.515625 Z M 20.546875 -9.09375 C 22.660156 -9.09375 24.460938 -9.875 25.953125 -11.4375 C 27.453125 -13 28.203125 -15.234375 28.203125 -18.140625 C 28.203125 -21.035156 27.476562 -23.265625 26.03125 -24.828125 C 24.582031 -26.390625 22.796875 -27.171875 20.671875 -27.171875 C 18.503906 -27.171875 16.703125 -26.398438 15.265625 -24.859375 C 13.835938 -23.328125 13.125 -21.085938 13.125 -18.140625 C 13.125 -15.234375 13.828125 -13 15.234375 -11.4375 C 16.648438 -9.875 18.421875 -9.09375 20.546875 -9.09375 Z M 20.546875 -9.09375 "/></g></g></g><g fill="#b6b6bf" fill-opacity="1"><g transform="translate(610.88434, 712.250072)"><g><path d="M 20.546875 0.515625 C 16.984375 0.515625 13.78125 -0.238281 10.9375 -1.75 C 8.101562 -3.269531 5.875 -5.4375 4.25 -8.25 C 2.625 -11.070312 1.8125 -14.367188 1.8125 -18.140625 C 1.8125 -21.859375 2.632812 -25.132812 4.28125 -27.96875 C 5.9375 -30.8125 8.191406 -32.992188 11.046875 -34.515625 C 13.910156 -36.035156 17.117188 -36.796875 20.671875 -36.796875 C 24.222656 -36.796875 27.425781 -36.035156 30.28125 -34.515625 C 33.144531 -32.992188 35.398438 -30.8125 37.046875 -27.96875 C 38.691406 -25.132812 39.515625 -21.859375 39.515625 -18.140625 C 39.515625 -14.410156 38.679688 -11.125 37.015625 -8.28125 C 35.347656 -5.445312 33.070312 -3.269531 30.1875 -1.75 C 27.3125 -0.238281 24.097656 0.515625 20.546875 0.515625 Z M 20.546875 -9.09375 C 22.660156 -9.09375 24.460938 -9.875 25.953125 -11.4375 C 27.453125 -13 28.203125 -15.234375 28.203125 -18.140625 C 28.203125 -21.035156 27.476562 -23.265625 26.03125 -24.828125 C 24.582031 -26.390625 22.796875 -27.171875 20.671875 -27.171875 C 18.503906 -27.171875 16.703125 -26.398438 15.265625 -24.859375 C 13.835938 -23.328125 13.125 -21.085938 13.125 -18.140625 C 13.125 -15.234375 13.828125 -13 15.234375 -11.4375 C 16.648438 -9.875 18.421875 -9.09375 20.546875 -9.09375 Z M 20.546875 -9.09375 "/></g></g></g><g fill="#b6b6bf" fill-opacity="1"><g transform="translate(649.554383, 712.250072)"><g><path d="M 26.1875 0 L 15.140625 -15.203125 L 15.140625 0 L 4.03125 0 L 4.03125 -48.09375 L 15.140625 -48.09375 L 15.140625 -21.515625 L 26.125 -36.265625 L 39.84375 -36.265625 L 24.765625 -18.0625 L 39.96875 0 Z M 26.1875 0 "/></g></g></g><g fill="#b6b6bf" fill-opacity="1"><g transform="translate(686.989561, 712.250072)"><g/></g></g><g fill="#b6b6bf" fill-opacity="1"><g transform="translate(698.03787, 712.250072)"><g><path d="M 41.078125 -36.265625 L 18.328125 17.21875 L 6.375 17.21875 L 14.6875 -1.234375 L -0.0625 -36.265625 L 12.34375 -36.265625 L 20.734375 -13.578125 L 29.0625 -36.265625 Z M 41.078125 -36.265625 "/></g></g></g><g fill="#b6b6bf" fill-opacity="1"><g transform="translate(736.382946, 712.250072)"><g><path d="M 38.21875 -18.71875 C 38.21875 -17.675781 38.15625 -16.59375 38.03125 -15.46875 L 12.875 -15.46875 C 13.039062 -13.21875 13.765625 -11.492188 15.046875 -10.296875 C 16.328125 -9.109375 17.898438 -8.515625 19.765625 -8.515625 C 22.535156 -8.515625 24.460938 -9.6875 25.546875 -12.03125 L 37.375 -12.03125 C 36.769531 -9.644531 35.675781 -7.5 34.09375 -5.59375 C 32.507812 -3.6875 30.523438 -2.191406 28.140625 -1.109375 C 25.753906 -0.0234375 23.09375 0.515625 20.15625 0.515625 C 16.59375 0.515625 13.425781 -0.238281 10.65625 -1.75 C 7.882812 -3.269531 5.71875 -5.4375 4.15625 -8.25 C 2.59375 -11.070312 1.8125 -14.367188 1.8125 -18.140625 C 1.8125 -21.910156 2.582031 -25.203125 4.125 -28.015625 C 5.664062 -30.828125 7.820312 -32.992188 10.59375 -34.515625 C 13.363281 -36.035156 16.550781 -36.796875 20.15625 -36.796875 C 23.664062 -36.796875 26.785156 -36.054688 29.515625 -34.578125 C 32.242188 -33.109375 34.375 -31.007812 35.90625 -28.28125 C 37.445312 -25.550781 38.21875 -22.363281 38.21875 -18.71875 Z M 26.84375 -21.640625 C 26.84375 -23.546875 26.191406 -25.0625 24.890625 -26.1875 C 23.585938 -27.320312 21.960938 -27.890625 20.015625 -27.890625 C 18.148438 -27.890625 16.578125 -27.347656 15.296875 -26.265625 C 14.023438 -25.179688 13.238281 -23.640625 12.9375 -21.640625 Z M 26.84375 -21.640625 "/></g></g></g><g fill="#b6b6bf" fill-opacity="1"><g transform="translate(773.688119, 712.250072)"><g><path d="M 24.25 -9.421875 L 24.25 0 L 18.59375 0 C 14.5625 0 11.414062 -0.984375 9.15625 -2.953125 C 6.90625 -4.929688 5.78125 -8.148438 5.78125 -12.609375 L 5.78125 -27.046875 L 1.359375 -27.046875 L 1.359375 -36.265625 L 5.78125 -36.265625 L 5.78125 -45.109375 L 16.90625 -45.109375 L 16.90625 -36.265625 L 24.1875 -36.265625 L 24.1875 -27.046875 L 16.90625 -27.046875 L 16.90625 -12.484375 C 16.90625 -11.398438 17.160156 -10.617188 17.671875 -10.140625 C 18.191406 -9.660156 19.0625 -9.421875 20.28125 -9.421875 Z M 24.25 -9.421875 "/></g></g></g></svg>