<svg xmlns="http://www.w3.org/2000/svg" xmlns:xlink="http://www.w3.org/1999/xlink" width="200" zoomAndPan="magnify" viewBox="0 0 150 44.999999" height="60" preserveAspectRatio="xMidYMid meet" version="1.0"><defs><g/></defs><g fill="#000000" fill-opacity="1"><g transform="translate(4.146039, 33.849952)"><g><path d="M 0.515625 -27.046875 L 0.515625 -21.6875 L 7.375 -21.6875 L 7.375 0 L 13.671875 0 L 13.671875 -21.6875 L 20.453125 -21.6875 L 20.453125 -27.046875 Z M 0.515625 -27.046875 "/></g></g></g><g fill="#000000" fill-opacity="1"><g transform="translate(22.472023, 33.849952)"><g><path d="M 11.3125 -20.421875 C 5.75 -20.421875 2.25 -18.09375 1.78125 -14.15625 L 7.25 -13.640625 C 7.25 -15.53125 8.796875 -16.5625 10.71875 -16.5625 C 12.21875 -16.5625 13.59375 -15.921875 13.59375 -13.765625 L 13.59375 -12.5 L 10.125 -12.1875 C 3.1875 -11.515625 1.1875 -8.4375 1.1875 -5.28125 C 1.1875 -1.78125 3.671875 0.390625 7.484375 0.390625 C 10.25 0.390625 12.109375 -0.546875 13.875 -3.109375 L 13.875 -2.5625 C 13.875 -1.734375 13.953125 -0.90625 14.15625 0 L 19.90625 0 C 19.59375 -1.0625 19.515625 -2.171875 19.515625 -2.84375 L 19.515625 -14.421875 C 19.515625 -18.921875 15.40625 -20.421875 11.3125 -20.421875 Z M 7.328125 -5.90625 C 7.328125 -8.390625 10.328125 -9.265625 13.59375 -9.578125 L 13.59375 -7.8125 C 13.59375 -5.828125 12.53125 -3.265625 9.8125 -3.265625 C 8.28125 -3.265625 7.328125 -4.34375 7.328125 -5.90625 Z M 7.328125 -5.90625 "/></g></g></g><g fill="#000000" fill-opacity="1"><g transform="translate(40.798008, 33.849952)"><g><path d="M 9.734375 -20.421875 C 4.53125 -20.421875 1.1875 -17.96875 1.1875 -13.765625 C 1.1875 -11.03125 2.84375 -8.828125 5.984375 -8.078125 C 7.5625 -7.6875 9.296875 -7.375 11.390625 -7.09375 C 12.609375 -6.9375 13.328125 -6.46875 13.328125 -5.4375 C 13.328125 -4.21875 11.625 -3.546875 9.78125 -3.546875 C 7.453125 -3.546875 5.671875 -4.5 5.40625 -6.234375 L 0.390625 -5.515625 C 1.21875 -1.78125 4.375 0.390625 9.546875 0.390625 C 15.578125 0.390625 18.453125 -2.796875 18.453125 -6.34375 C 18.453125 -9.9375 16.90625 -12.265625 10.796875 -12.890625 C 7.53125 -13.25 6.421875 -13.71875 6.421875 -14.9375 C 6.421875 -16.046875 7.53125 -16.71875 9.375 -16.71875 C 11.3125 -16.71875 12.84375 -15.921875 13.328125 -14.03125 L 17.625 -15.171875 C 16.234375 -18.921875 13.671875 -20.421875 9.734375 -20.421875 Z M 9.734375 -20.421875 "/></g></g></g><g fill="#000000" fill-opacity="1"><g transform="translate(57.547429, 33.849952)"><g><path d="M 9.265625 -26.328125 L 4.21875 -25.9375 L 3.703125 -20.0625 L 0.203125 -20.0625 L 0.203125 -15.453125 L 3.46875 -15.453125 L 3.46875 -5.671875 C 3.46875 -0.90625 5.671875 0.390625 10.484375 0.390625 C 11.359375 0.390625 12.734375 0.234375 13.875 -0.046875 L 13.875 -4.421875 C 12.84375 -4.296875 12.421875 -4.25 11.9375 -4.25 C 9.78125 -4.25 9.265625 -4.578125 9.265625 -7.25 L 9.265625 -15.453125 L 13.5625 -15.453125 L 13.5625 -20.0625 L 9.265625 -20.0625 Z M 9.265625 -26.328125 "/></g></g></g><g fill="#000000" fill-opacity="1"><g transform="translate(69.56718, 33.849952)"><g><path d="M 10.5625 -20.421875 C 4.84375 -20.421875 0.984375 -15.921875 0.984375 -9.734375 C 0.984375 -3.703125 4.96875 0.390625 10.875 0.390625 C 14.078125 0.390625 16.796875 -0.984375 18.484375 -3.3125 C 19.359375 -4.5 19.875 -5.5625 19.984375 -6.5 L 14.625 -6.90625 C 14.625 -5.125 12.9375 -3.75 11.078125 -3.75 C 8.59375 -3.75 7.21875 -5.59375 7.21875 -8 C 7.21875 -8.359375 7.25 -8.671875 7.25 -9.03125 L 20.109375 -9.03125 L 20.109375 -9.625 C 20.109375 -16.90625 15.765625 -20.421875 10.5625 -20.421875 Z M 7.21875 -12.453125 C 7.484375 -15.40625 8.90625 -16.640625 10.921875 -16.640625 C 13.015625 -16.640625 14.15625 -15.296875 14.3125 -12.453125 Z M 7.21875 -12.453125 "/></g></g></g><g fill="#fb6f4b" fill-opacity="1"><g transform="translate(87.895952, 33.849952)"><g><path d="M 2.046875 -27.046875 L 2.046875 0 L 7.84375 0 L 7.84375 -11.828125 C 7.84375 -15.140625 9.703125 -15.8125 11.15625 -15.8125 C 12.734375 -15.8125 13.4375 -14.421875 13.4375 -12.0625 L 13.4375 0 L 19.234375 0 L 19.234375 -14.46875 C 19.234375 -18.453125 16.640625 -20.421875 13.125 -20.421875 C 10.875 -20.421875 8.71875 -19.28125 7.921875 -17.265625 L 7.84375 -17.265625 L 7.84375 -27.046875 Z M 2.046875 -27.046875 "/></g></g></g><g fill="#fb6f4b" fill-opacity="1"><g transform="translate(106.221936, 33.849952)"><g><path d="M 19.15625 0 L 19.15625 -20.03125 L 13.359375 -20.03125 L 13.359375 -7.890625 C 13.359375 -5.671875 11.984375 -4.25 10.125 -4.25 C 8.671875 -4.25 7.921875 -4.921875 7.921875 -7.171875 L 7.921875 -20.03125 L 2.125 -20.03125 L 2.125 -5.90625 C 2.125 -2.09375 3.828125 0.390625 7.765625 0.390625 C 10.84375 0.390625 12.734375 -0.90625 13.71875 -3.4375 L 13.796875 -3.4375 L 13.796875 0 Z M 19.15625 0 "/></g></g></g><g fill="#fb6f4b" fill-opacity="1"><g transform="translate(124.547921, 33.849952)"><g><path d="M 2.203125 -27.046875 L 2.203125 0 L 5.359375 0 C 5.71875 -1.0625 5.984375 -2.203125 6.65625 -3.078125 C 8.15625 -0.59375 9.578125 0.390625 12.375 0.390625 C 17.625 0.390625 20.5 -3.671875 20.5 -10.015625 C 20.5 -15.921875 18.0625 -20.421875 13.046875 -20.421875 C 10.796875 -20.421875 9.140625 -19.515625 8.15625 -17.5 L 8 -17.5 L 8 -27.046875 Z M 14.46875 -10.453125 C 14.46875 -7.484375 14.3125 -6.546875 13.875 -5.515625 C 13.171875 -3.859375 11.984375 -3.671875 11.203125 -3.671875 C 9.578125 -3.671875 8.078125 -4.8125 8.078125 -8.078125 L 8.078125 -11.4375 C 8.078125 -14.59375 9.1875 -16.4375 11.234375 -16.4375 C 12.734375 -16.4375 14.46875 -15.6875 14.46875 -10.453125 Z M 14.46875 -10.453125 "/></g></g></g></svg>