<svg xmlns="http://www.w3.org/2000/svg" xmlns:xlink="http://www.w3.org/1999/xlink" width="120" zoomAndPan="magnify" viewBox="0 0 90 30.000001" height="40" preserveAspectRatio="xMidYMid meet" version="1.0"><defs><g/></defs><g fill="#000000" fill-opacity="1"><g transform="translate(4.185161, 21.851268)"><g><path d="M 0.296875 -15.578125 L 0.296875 -12.484375 L 4.25 -12.484375 L 4.25 0 L 7.875 0 L 7.875 -12.484375 L 11.78125 -12.484375 L 11.78125 -15.578125 Z M 0.296875 -15.578125 "/></g></g></g><g fill="#000000" fill-opacity="1"><g transform="translate(14.741694, 21.851268)"><g><path d="M 6.515625 -11.765625 C 3.3125 -11.765625 1.296875 -10.421875 1.015625 -8.15625 L 4.171875 -7.859375 C 4.171875 -8.9375 5.0625 -9.53125 6.171875 -9.53125 C 7.03125 -9.53125 7.828125 -9.171875 7.828125 -7.921875 L 7.828125 -7.203125 L 5.828125 -7.015625 C 1.84375 -6.625 0.6875 -4.859375 0.6875 -3.046875 C 0.6875 -1.015625 2.109375 0.234375 4.3125 0.234375 C 5.90625 0.234375 6.96875 -0.3125 7.984375 -1.796875 L 7.984375 -1.46875 C 7.984375 -1 8.03125 -0.515625 8.15625 0 L 11.46875 0 C 11.28125 -0.609375 11.234375 -1.25 11.234375 -1.640625 L 11.234375 -8.3125 C 11.234375 -10.890625 8.875 -11.765625 6.515625 -11.765625 Z M 4.21875 -3.40625 C 4.21875 -4.828125 5.953125 -5.328125 7.828125 -5.515625 L 7.828125 -4.5 C 7.828125 -3.359375 7.21875 -1.890625 5.65625 -1.890625 C 4.765625 -1.890625 4.21875 -2.5 4.21875 -3.40625 Z M 4.21875 -3.40625 "/></g></g></g><g fill="#000000" fill-opacity="1"><g transform="translate(25.298226, 21.851268)"><g><path d="M 5.609375 -11.765625 C 2.609375 -11.765625 0.6875 -10.359375 0.6875 -7.921875 C 0.6875 -6.359375 1.640625 -5.078125 3.453125 -4.65625 C 4.359375 -4.421875 5.359375 -4.25 6.5625 -4.09375 C 7.265625 -4 7.671875 -3.71875 7.671875 -3.140625 C 7.671875 -2.421875 6.703125 -2.046875 5.625 -2.046875 C 4.296875 -2.046875 3.265625 -2.59375 3.109375 -3.59375 L 0.234375 -3.171875 C 0.703125 -1.015625 2.515625 0.234375 5.5 0.234375 C 8.96875 0.234375 10.625 -1.609375 10.625 -3.65625 C 10.625 -5.71875 9.734375 -7.0625 6.21875 -7.421875 C 4.34375 -7.625 3.703125 -7.90625 3.703125 -8.609375 C 3.703125 -9.234375 4.34375 -9.625 5.40625 -9.625 C 6.515625 -9.625 7.40625 -9.171875 7.671875 -8.078125 L 10.140625 -8.734375 C 9.359375 -10.890625 7.875 -11.765625 5.609375 -11.765625 Z M 5.609375 -11.765625 "/></g></g></g><g fill="#000000" fill-opacity="1"><g transform="translate(34.946592, 21.851268)"><g><path d="M 5.328125 -15.171875 L 2.421875 -14.9375 L 2.140625 -11.5625 L 0.109375 -11.5625 L 0.109375 -8.90625 L 2 -8.90625 L 2 -3.265625 C 2 -0.515625 3.265625 0.234375 6.03125 0.234375 C 6.53125 0.234375 7.328125 0.140625 7.984375 -0.015625 L 7.984375 -2.546875 C 7.40625 -2.46875 7.15625 -2.453125 6.875 -2.453125 C 5.625 -2.453125 5.328125 -2.640625 5.328125 -4.171875 L 5.328125 -8.90625 L 7.8125 -8.90625 L 7.8125 -11.5625 L 5.328125 -11.5625 Z M 5.328125 -15.171875 "/></g></g></g><g fill="#000000" fill-opacity="1"><g transform="translate(41.87047, 21.851268)"><g><path d="M 6.078125 -11.765625 C 2.796875 -11.765625 0.5625 -9.171875 0.5625 -5.609375 C 0.5625 -2.140625 2.859375 0.234375 6.265625 0.234375 C 8.109375 0.234375 9.671875 -0.5625 10.640625 -1.90625 C 11.140625 -2.59375 11.4375 -3.203125 11.515625 -3.75 L 8.421875 -3.96875 C 8.421875 -2.953125 7.453125 -2.15625 6.375 -2.15625 C 4.953125 -2.15625 4.15625 -3.21875 4.15625 -4.609375 C 4.15625 -4.8125 4.171875 -5 4.171875 -5.203125 L 11.578125 -5.203125 L 11.578125 -5.546875 C 11.578125 -9.734375 9.078125 -11.765625 6.078125 -11.765625 Z M 4.15625 -7.171875 C 4.3125 -8.875 5.125 -9.578125 6.28125 -9.578125 C 7.484375 -9.578125 8.15625 -8.8125 8.234375 -7.171875 Z M 4.15625 -7.171875 "/></g></g></g><g fill="#fb6f4b" fill-opacity="1"><g transform="translate(52.428608, 21.851268)"><g><path d="M 1.1875 -15.578125 L 1.1875 0 L 4.515625 0 L 4.515625 -6.8125 C 4.515625 -8.71875 5.578125 -9.109375 6.421875 -9.109375 C 7.328125 -9.109375 7.734375 -8.3125 7.734375 -6.953125 L 7.734375 0 L 11.078125 0 L 11.078125 -8.328125 C 11.078125 -10.625 9.578125 -11.765625 7.5625 -11.765625 C 6.265625 -11.765625 5.015625 -11.109375 4.5625 -9.9375 L 4.515625 -9.9375 L 4.515625 -15.578125 Z M 1.1875 -15.578125 "/></g></g></g><g fill="#fb6f4b" fill-opacity="1"><g transform="translate(62.985141, 21.851268)"><g><path d="M 11.03125 0 L 11.03125 -11.53125 L 7.703125 -11.53125 L 7.703125 -4.546875 C 7.703125 -3.265625 6.90625 -2.453125 5.828125 -2.453125 C 5 -2.453125 4.5625 -2.84375 4.5625 -4.125 L 4.5625 -11.53125 L 1.21875 -11.53125 L 1.21875 -3.40625 C 1.21875 -1.203125 2.203125 0.234375 4.46875 0.234375 C 6.25 0.234375 7.328125 -0.515625 7.90625 -1.96875 L 7.953125 -1.96875 L 7.953125 0 Z M 11.03125 0 "/></g></g></g><g fill="#fb6f4b" fill-opacity="1"><g transform="translate(73.541673, 21.851268)"><g><path d="M 1.265625 -15.578125 L 1.265625 0 L 3.09375 0 C 3.296875 -0.609375 3.453125 -1.265625 3.84375 -1.765625 C 4.703125 -0.34375 5.515625 0.234375 7.125 0.234375 C 10.140625 0.234375 11.8125 -2.109375 11.8125 -5.765625 C 11.8125 -9.171875 10.390625 -11.765625 7.515625 -11.765625 C 6.21875 -11.765625 5.265625 -11.234375 4.703125 -10.078125 L 4.609375 -10.078125 L 4.609375 -15.578125 Z M 8.328125 -6.015625 C 8.328125 -4.3125 8.234375 -3.765625 7.984375 -3.171875 C 7.578125 -2.21875 6.90625 -2.109375 6.453125 -2.109375 C 5.515625 -2.109375 4.65625 -2.765625 4.65625 -4.65625 L 4.65625 -6.578125 C 4.65625 -8.40625 5.296875 -9.46875 6.46875 -9.46875 C 7.328125 -9.46875 8.328125 -9.03125 8.328125 -6.015625 Z M 8.328125 -6.015625 "/></g></g></g></svg>