<svg xmlns="http://www.w3.org/2000/svg" xmlns:xlink="http://www.w3.org/1999/xlink" width="60" zoomAndPan="magnify" viewBox="0 0 45 44.999999" height="60" preserveAspectRatio="xMidYMid meet" version="1.0"><defs><g/></defs><g fill="#000000" fill-opacity="1"><g transform="translate(0.494956, 36.304622)"><g><path d="M 0.578125 -30.296875 L 0.578125 -24.296875 L 8.265625 -24.296875 L 8.265625 0 L 15.328125 0 L 15.328125 -24.296875 L 22.921875 -24.296875 L 22.921875 -30.296875 Z M 0.578125 -30.296875 "/></g></g></g><g fill="#fb6f4b" fill-opacity="1"><g transform="translate(22.011549, 36.304622)"><g><path d="M 2.296875 -30.296875 L 2.296875 0 L 8.796875 0 L 8.796875 -13.25 C 8.796875 -16.96875 10.859375 -17.71875 12.5 -17.71875 C 14.265625 -17.71875 15.0625 -16.171875 15.0625 -13.515625 L 15.0625 0 L 21.5625 0 L 21.5625 -16.21875 C 21.5625 -20.671875 18.640625 -22.875 14.703125 -22.875 C 12.1875 -22.875 9.765625 -21.59375 8.875 -19.34375 L 8.796875 -19.34375 L 8.796875 -30.296875 Z M 2.296875 -30.296875 "/></g></g></g></svg>